<?xml version="1.0" encoding="UTF-8" standalone="no"?>
<!-- Created with Inkscape (http://www.inkscape.org/) -->

<svg
   width="68.449303mm"
   height="79.114624mm"
   viewBox="0 0 68.449303 79.114624"
   version="1.1"
   id="svg5"
   xml:space="preserve"
   xmlns:inkscape="http://www.inkscape.org/namespaces/inkscape"
   xmlns:sodipodi="http://sodipodi.sourceforge.net/DTD/sodipodi-0.dtd"
   xmlns="http://www.w3.org/2000/svg"
   xmlns:svg="http://www.w3.org/2000/svg"><sodipodi:namedview
     id="namedview7"
     pagecolor="#ffffff"
     bordercolor="#000000"
     borderopacity="0.25"
     inkscape:showpageshadow="2"
     inkscape:pageopacity="0.0"
     inkscape:pagecheckerboard="0"
     inkscape:deskcolor="#d1d1d1"
     inkscape:document-units="mm"
     showgrid="false" /><defs
     id="defs2" /><g
     inkscape:label="Capa 1"
     inkscape:groupmode="layer"
     id="layer1"
     transform="translate(-53.640237,-160.3153)"><path
       style="fill:#000000;stroke-width:0.264583"
       d="m 92.281825,239.30414 c -2.829,-0.93238 -3.43543,-2.43657 -2.00921,-4.9836 1.05527,-1.88458 1.48147,-3.64576 1.49145,-6.16311 0.0172,-4.34243 0.43781,-9.05678 0.91357,-10.24008 1.06007,-2.63654 -4.11615,-6.23965 -9.65452,-6.7204 -9.2592,-0.80374 -12.09877,-2.92794 -13.10876,-9.80629 -0.88,-5.99312 -2.31655,-8.61867 -4.048311,-7.39903 -0.386266,0.27204 -1.191645,0.7422 -1.789731,1.04481 -1.532744,0.7755 -6.017006,4.15606 -8.109724,6.1137 -3.659892,3.42365 -2.809976,-2.60231 1.210027,-8.57917 4.3913,-6.5289 15.300779,-12.83163 29.341599,-16.95151 1.78848,-0.52478 3.86701,-1.25054 4.61895,-1.6128 0.75195,-0.36226 1.58538,-0.62589 1.85208,-0.58583 0.2667,0.0401 0.88056,-0.13694 1.36412,-0.39332 0.57084,-0.30265 1.14485,-0.4078 1.63659,-0.29979 0.47706,0.10478 0.98403,0.0203 1.36975,-0.22819 0.3368,-0.21699 1.06072,-0.37971 1.6087,-0.3616 1.581345,0.0523 1.865025,-0.43154 1.774695,-3.02685 -0.29591,-8.50117 -0.15047,-8.78513 4.50502,-8.79557 4.41013,-0.01 4.59355,0.30809 4.34636,7.53491 -0.18944,5.53826 -0.18944,5.53826 0.70866,5.56534 0.89811,0.0271 0.89811,0.0271 0.10436,0.22118 -0.43656,0.10675 -1.29502,0.45175 -1.90769,0.76667 -1.54174,0.79246 -5.49557,0.20163 -7.56469,-1.13041 -1.418805,-0.91339 -3.823935,-0.7121 -3.440195,0.28791 0.0905,0.23592 0.0563,0.37911 -0.076,0.3182 -0.13233,-0.0609 -0.56701,-0.27439 -0.96594,-0.47442 -0.51074,-0.25607 -0.89511,-0.28793 -1.29911,-0.10766 -1.2159,0.54256 2.68833,1.50921 5.318625,1.31686 1.62262,-0.11867 2.67345,-0.0544 3.71729,0.22748 1.77187,0.47841 2.80694,0.49596 4.8131,0.0816 1.72718,-0.35674 2.7418,-0.13035 4.50779,1.00583 1.01801,0.65495 2.58536,0.86062 2.58536,0.33926 0,-0.17225 -0.27509,-0.24284 -0.65978,-0.16931 -0.37537,0.0718 -0.78852,-0.029 -0.95844,-0.23373 -0.16426,-0.19793 -0.47801,-0.35987 -0.69721,-0.35987 -0.21921,0 -0.85982,-0.41672 -1.42358,-0.92604 -0.56376,-0.50932 -0.95731,-0.92604 -0.87457,-0.92604 0.33098,0 1.31898,0.62791 1.51787,0.96467 0.11637,0.19703 0.4963,0.35825 0.84428,0.35825 0.34799,0 0.70628,0.11906 0.79622,0.26458 0.0899,0.14552 0.35043,0.26458 0.57886,0.26458 0.22844,0 0.86449,0.38695 1.41345,0.8599 0.54896,0.47294 1.29504,1.06439 1.65795,1.31433 1.13021,0.77837 1.86696,2.66657 1.69407,4.34168 -0.10143,0.9828 -0.0224,1.74604 0.2478,2.3927 0.21821,0.52225 0.36586,1.45184 0.32811,2.06576 -0.05,0.8133 0.0846,1.31109 0.49622,1.83433 1.62428,2.06493 1.31495,4.9154 -0.80983,7.46274 -0.35001,0.41962 -0.87601,1.29872 -1.16888,1.95356 -1.07406,2.40151 -2.69718,3.15742 -4.86253,2.26455 -0.38726,-0.15968 -0.3914,-0.005 -0.0469,1.75671 0.61435,3.14047 0.53453,7.43358 -0.17364,9.3402 -0.3243,0.87313 -0.68654,2.30188 -0.80498,3.175 -0.11843,0.87313 -0.40612,2.10849 -0.6393,2.74525 -0.52374,1.43021 -0.52692,1.62038 -0.0271,1.62038 0.50751,0 0.51442,0.98523 0.0235,3.35614 -1.65407,7.98868 -0.87814,9.66819 5.73625,12.41616 3.17726,1.32 3.58078,2.03371 1.67773,2.96743 -1.2256,0.60134 -14.53144,0.0196 -15.46751,-0.67623 -0.92223,-0.68556 -1.02016,-1.91577 -0.31836,-3.99905 0.78468,-2.32928 0.69807,-3.8426 -0.40828,-7.13338 -1.32808,-3.95031 -1.54282,-6.80061 -0.54105,-7.18148 0.38431,-0.14611 0.69874,-0.39033 0.69874,-0.5427 0,-0.15238 0.47625,-0.79372 1.05834,-1.4252 1.19501,-1.29644 1.30655,-1.98602 0.63842,-3.94688 -0.41991,-1.23238 -0.41991,-1.23238 -1.43671,0.054 -0.55923,0.70749 -1.38202,1.54641 -1.82841,1.86427 -0.44639,0.31786 -0.88312,0.86279 -0.9705,1.21096 -0.0874,0.34817 -0.3258,0.77157 -0.5298,0.94088 -0.23061,0.19137 -0.37093,0.82505 -0.37093,1.67505 0,1.76494 -0.571325,3.93093 -1.551085,5.88036 -1.69558,3.37371 -2.27926,8.13944 -1.4714,12.01396 0.41169,1.97448 0.26993,2.67816 -0.60818,3.01896 -0.76047,0.29515 -3.85297,0.41585 -4.57312,0.1785 z m 25.391455,-2.66088 c 0.41026,-0.76657 0.0744,-1.29704 -1.27953,-2.02088 -5.49462,-2.93759 -5.18529,-2.55163 -5.26632,-6.5708 -0.0738,-3.6614 -0.0738,-3.6614 -0.89297,-3.49757 -0.45053,0.0901 -1.91706,0.16383 -3.25896,0.16383 -2.43981,0 -2.43981,0 -1.9742,1.3754 0.71461,2.11087 0.91279,5.19336 0.4111,6.39406 -0.45923,1.09911 -0.44538,1.11554 1.25329,1.48637 0.48741,0.1064 0.79878,0.32483 0.75257,0.52793 -0.32261,1.41802 0.18024,1.85714 2.15037,1.87786 1.04346,0.011 2.90923,0.17392 4.14616,0.36213 3.26189,0.49632 3.64535,0.48679 3.95849,-0.0983 z m -21.045045,-7.87445 c 0.13311,-1.46888 0.4668,-2.70089 1.20037,-4.43177 1.48084,-3.49409 2.222375,-7.17964 1.3341,-6.63065 -0.52619,0.3252 -0.24053,-0.28839 0.66402,-1.4263 0.507905,-0.63894 0.924985,-1.35332 0.926815,-1.5875 0.002,-0.23418 0.63288,-0.9778 1.40231,-1.65247 1.82485,-1.60011 2.82309,-3.52967 4.01025,-7.75163 0.88229,-3.13773 1.68912,-5.30885 1.33389,-3.58939 -0.0752,0.3638 -0.31468,1.87943 -0.53226,3.36808 -0.21758,1.48864 -0.57018,3.21333 -0.78355,3.83264 -0.3706,1.07568 -0.35217,1.2302 0.41223,3.45651 0.92625,2.69766 0.94183,3.98367 0.0498,4.1105 -0.62698,0.0892 -1.92726,1.45161 -1.92726,2.01942 0,0.44588 3.21302,0.77479 5.17458,0.5297 1.56574,-0.19562 2.75822,-2.50109 2.42713,-4.69246 -0.0892,-0.59005 0.0613,-1.17678 0.49131,-1.9163 1.38925,-2.38906 1.38342,-8.31707 -0.0134,-13.58772 -0.20762,-0.78344 -0.45385,-2.03558 -0.54718,-2.78254 -0.16968,-1.35811 -0.16968,-1.35811 -3.65264,-1.38881 -2.82501,-0.0249 -3.91705,-0.15284 -5.78091,-0.67724 -2.68587,-0.75566 -3.359165,-0.2656 -1.94467,1.41543 0.99726,1.18517 0.36638,2.29393 -2.298895,4.04028 -1.67041,1.0945 -2.70709,9.42249 -1.66956,13.41217 0.14633,0.56268 -0.062,1.00709 -1.13887,2.42987 -1.8877,2.49401 -2.3231,4.16301 -2.79048,10.69681 -0.35858,5.01274 -0.45671,4.78915 2.11591,4.82105 1.35257,0.0168 1.35257,0.0168 1.53692,-2.01768 z m -9.60972,-20.2448 c 6.08844,-3.04772 11.05527,-7.97578 8.96919,-8.89917 -0.44368,-0.19639 -0.79375,-0.55461 -0.79375,-0.81222 0,-0.25347 -0.29766,-0.7405 -0.66146,-1.08227 -0.3638,-0.34178 -0.66146,-0.89979 -0.66146,-1.24004 0,-0.7204 -1.56113,-1.79671 -4.8271,-3.32798 -3.01598,-1.41407 -4.33051,-2.41447 -5.22069,-3.97311 -1.05967,-1.85541 -8.1506,5.14006 -11.65639,11.49945 -3.53152,6.40605 6.80886,11.86136 14.85166,7.83534 z M 57.623117,198.14244 c 3.833881,-3.36379 13.395238,-8.78063 23.618598,-13.38074 3.11339,-1.4009 3.11339,-1.4009 3.50651,-2.74894 0.54822,-1.87989 1.29685,-3.00387 2.26343,-3.39827 0.76546,-0.31234 1.88771,-2.31539 1.29724,-2.31539 -1.53449,0 -12.01118,3.99897 -16.67065,6.36322 -9.461681,4.80094 -14.38047,9.60149 -16.234324,15.84409 -0.560601,1.88775 -0.540149,2.06204 0.168675,1.43741 0.327422,-0.28853 1.250156,-1.09915 2.050521,-1.80138 z m 59.941033,0.78302 c 0.47803,-0.50686 1.01617,-1.37006 1.19586,-1.91823 0.1797,-0.54817 0.60033,-1.35725 0.93473,-1.79795 2.5481,-3.35805 2.1222,-6.91273 -0.76038,-6.34644 -0.85395,0.16777 -0.85395,0.16777 -0.026,-0.38293 1.27241,-0.84628 1.3746,-2.66641 0.24639,-4.38828 -0.31769,-0.48486 -0.33997,-0.77904 -0.10913,-1.44123 0.73751,-2.11561 -0.45747,-4.73611 -2.4291,-5.32682 -1.20821,-0.36199 -1.58068,-0.17579 -0.99069,0.49525 1.61678,1.83887 2.04026,4.7797 0.80091,5.56176 -0.54158,0.34175 -0.70716,0.63515 -0.64766,1.14759 0.0683,0.58839 -0.25288,1.65045 -1.12976,3.73552 -0.1465,0.34835 0.0271,0.55945 0.73953,0.89918 0.80513,0.38394 0.88008,0.49484 0.55449,0.82044 -0.55311,0.55311 -0.46329,1.35018 0.32851,2.91514 0.82211,1.62487 0.82752,1.61381 -0.92556,1.89094 -1.62903,0.25752 -2.1607,0.65548 -2.1607,1.61735 0,3.00063 2.5439,4.46399 4.37853,2.51871 z m -18.594805,-0.55298 c 1.382425,-1.16324 1.841075,-1.88732 1.545395,-2.43979 -0.39962,-0.7467 -2.158905,-1.84804 -3.276195,-2.05095 -1.29802,-0.23572 -2.1982,-1.33182 -3.77855,-4.60092 -0.67286,-1.39188 -1.65931,-2.99025 -2.19211,-3.55195 -0.96873,-1.02126 -0.96873,-1.02126 0.15378,-0.45865 2.20045,1.1029 4.14876,-0.65726 4.9514,-4.47321 0.29563,-1.40552 0.49079,-1.42912 2.27612,-0.2752 2.245855,1.45155 2.496355,1.48843 5.690355,0.83756 3.57985,-0.72949 6.63828,-0.72866 8.5815,0.002 2.28917,0.86114 3.02482,0.81054 3.12419,-0.21487 0.3621,-3.7363 -3.69733,-6.8216 -7.60657,-5.78124 -1.30157,0.34639 -1.64641,0.33708 -3.59464,-0.097 -1.6276,-0.36266 -2.53789,-0.42742 -3.7197,-0.26464 -1.733825,0.23881 -3.077405,0.11464 -4.884305,-0.4514 -3.95215,-1.23808 -8.73409,2.33963 -6.27159,4.69221 0.78075,0.7459 0.79378,0.78208 0.1416,0.39315 -1.68208,-1.00314 -2.84375,-0.32958 -3.65954,2.12188 -0.32154,0.96623 -0.93801,2.32526 -1.36993,3.02008 -1.57539,2.53428 0.0218,5.02764 4.97921,7.77296 3.80786,2.10872 4.60502,2.7192 4.60502,3.5266 0,1.99107 2.85561,3.51228 4.30456,2.29308 z m 11.398235,-4.25283 c 2.02429,-0.17112 2.02429,-0.17112 2.02429,-1.53192 0,-1.66088 0.52864,-3.76556 1.43303,-5.7053 2.01946,-4.33139 -1.71781,-6.17868 -9.31554,-4.60456 -2.64098,0.54717 -4.0356,0.34936 -5.800955,-0.82277 -1.71879,-1.14121 -1.66237,-1.14624 -1.66237,0.14844 0,0.58912 -0.23906,1.56592 -0.53125,2.17068 -0.76506,1.5835 1.78054,4.14865 4.143105,4.17492 0.75377,0.008 0.75377,0.008 0.0358,0.54423 -0.733835,0.54768 -0.746285,0.65102 -0.33275,2.76162 0.20243,1.03312 4.80178,2.93321 7.29467,3.0136 0.37823,0.0122 1.59862,-0.0548 2.71198,-0.14894 z m -3.01997,-23.09504 c 1.38788,-1.38788 1.89487,-8.37273 0.66616,-9.17781 -1.01918,-0.66779 -4.47191,-0.69342 -5.4689,-0.0406 -1.56204,1.02282 -1.02987,8.87855 0.64716,9.5533 0.95035,0.38237 3.65639,0.16428 4.15558,-0.3349 z"
       id="path248" /></g></svg>
