<svg width="64" height="78" viewBox="0 0 64 78" fill="none" xmlns="http://www.w3.org/2000/svg">
<path d="M27.8976 50.7393L27.9029 7.76027H36.1077L36.1024 50.7393H27.8976Z" fill="white"/>
<path d="M19.6876 41.1884H9.78092e-06V33.2293H19.6876V41.1884Z" fill="white"/>
<path d="M27.8976 50.7393C27.8976 53.127 25.4361 55.5148 22.9747 55.5148V63.4738C29.5386 63.4738 36.1024 57.9025 36.1024 50.7393H27.8976Z" fill="white"/>
<path d="M22.9747 63.4738H13.1289V55.5148H22.9747V63.4738Z" fill="white"/>
<path d="M8.20483 50.7393C8.20483 53.127 10.6663 55.5148 13.1277 55.5148V63.4738C6.56387 63.4738 0 57.9025 0 50.7393H8.20483Z" fill="white"/>
<path d="M13.128 0.000170783H36.1024L36.1077 3.78078V7.76027L13.128 7.95924V0.000170783Z" fill="white"/>
<path d="M13.128 7.95924C10.6666 7.95924 8.20524 10.347 8.20524 12.7347H0.000406886C0.000406886 6.36742 5.74366 0.000170783 13.128 0.000170783V7.95924Z" fill="white"/>
<path d="M13.128 0.000170783L46.5568 0V7.95907L13.128 7.95924V0.000170783Z" fill="white"/>
<path d="M55.7952 50.7393C55.7952 53.127 53.3337 55.5148 50.8723 55.5148V63.4738C57.4361 63.4738 64 57.9025 64 50.7393H55.7952Z" fill="white"/>
<path d="M50.8723 63.4738H41.0265V55.5148H50.8723V63.4738Z" fill="white"/>
<path d="M36.1024 50.7393C36.1024 53.127 38.5639 55.5148 41.0253 55.5148V63.4738C34.4614 63.4738 27.8976 57.9025 27.8976 50.7393H36.1024Z" fill="white"/>
<path d="M8.20458 41.1884L8.20483 50.7393H0L9.78092e-06 41.1884H8.20458Z" fill="white"/>
<path d="M51.4797 12.7344C51.4797 10.3467 49.0182 7.95907 46.5568 7.95907V0C53.1207 0 59.6845 5.57121 59.6845 12.7344H51.4797Z" fill="white"/>
<path d="M27.8976 50.7393L27.9029 7.76027H36.1077L36.1024 50.7393H27.8976Z" fill="white"/>
<path d="M27.9029 68.9466H36.1077C36.1077 72.5281 34.4668 75.7118 32.0053 78C29.5439 75.7118 27.9029 72.5281 27.9029 68.9466Z" fill="white"/>
<path d="M36.1075 59.3957L36.1077 68.9466H27.9029L27.9029 59.3957H36.1075Z" fill="white"/>
<path d="M63.9997 41.1884L64 50.7393H55.7952L55.7952 41.1884H63.9997Z" fill="white"/>
</svg>
