<svg width="37" height="39" viewBox="0 0 37 39" fill="none" xmlns="http://www.w3.org/2000/svg">
<path d="M16.1283 25.3697L16.1314 3.88013H20.8748L20.8717 25.3697H16.1283Z" fill="white"/>
<path d="M11.3819 20.5942H5.6546e-06V16.6147H11.3819V20.5942Z" fill="white"/>
<path d="M16.1283 25.3697C16.1283 26.5635 14.7053 27.7574 13.2822 27.7574V31.7369C17.077 31.7369 20.8717 28.9512 20.8717 25.3697H16.1283Z" fill="white"/>
<path d="M13.2822 31.7369H7.59013V27.7574H13.2822V31.7369Z" fill="white"/>
<path d="M4.74342 25.3697C4.74342 26.5635 6.16645 27.7574 7.58947 27.7574V31.7369C3.79474 31.7369 0 28.9512 0 25.3697H4.74342Z" fill="white"/>
<path d="M7.58963 8.53917e-05H20.8717L20.8748 1.89039V3.88013L7.58963 3.97962V8.53917e-05Z" fill="white"/>
<path d="M7.58963 3.97962C6.1666 3.97962 4.74365 5.17348 4.74365 6.36734H0.000235231C0.000235231 3.18371 3.32055 8.53917e-05 7.58963 8.53917e-05V3.97962Z" fill="white"/>
<path d="M7.58963 8.53917e-05L26.9156 0V1.98977V3.97953L7.58963 3.97962V8.53917e-05Z" fill="white"/>
<path d="M32.2566 25.3697C32.2566 26.5635 30.8335 27.7574 29.4105 27.7574V31.7369C33.2053 31.7369 37 28.9512 37 25.3697H32.2566Z" fill="white"/>
<path d="M29.4105 31.7369H23.7184V27.7574H29.4105V31.7369Z" fill="white"/>
<path d="M20.8717 25.3697C20.8717 26.5635 22.2947 27.7574 23.7178 27.7574V31.7369C19.923 31.7369 16.1283 28.9512 16.1283 25.3697H20.8717Z" fill="white"/>
<path d="M4.74327 20.5942L4.74342 25.3697H0L5.6546e-06 20.5942H4.74327Z" fill="white"/>
<path d="M29.7617 6.36719C29.7617 5.17333 28.3387 3.97953 26.9156 3.97953V0C30.7104 0 34.5051 2.78561 34.5051 6.36719H29.7617Z" fill="white"/>
<path d="M16.1283 25.3697L16.1314 3.88013H20.8748L20.8717 25.3697H16.1283Z" fill="white"/>
<path d="M16.1314 34.4733H20.8748C20.8748 36.2641 19.9261 37.8559 18.5031 39C17.0801 37.8559 16.1314 36.2641 16.1314 34.4733Z" fill="white"/>
<path d="M20.8746 29.6978L20.8748 34.4733H16.1314L16.1314 29.6978H20.8746Z" fill="white"/>
<path d="M36.9998 20.5942L37 25.3697H32.2566L32.2566 20.5942H36.9998Z" fill="white"/>
</svg>
